<svg width="328" height="30" viewBox="0 0 328 30" fill="none" xmlns="http://www.w3.org/2000/svg">
<mask id="mask0_1221_92" style="mask-type:alpha" maskUnits="userSpaceOnUse" x="0" y="0" width="328" height="30">
<path d="M0 4C0 1.79086 1.79086 0 4 0H324C326.209 0 328 1.79086 328 4V30H0V4Z" fill="white" fill-opacity="0.1"/>
</mask>
<g mask="url(#mask0_1221_92)">
<g filter="url(#filter0_b_1221_92)">
<path d="M0 4C0 1.79086 1.79086 0 4 0H324C326.209 0 328 1.79086 328 4V30H0V4Z" fill="#00866A"/>
</g>
<path opacity="0.1" fill-rule="evenodd" clip-rule="evenodd" d="M0 9.86364L6 12.1818C12 14.8864 24 19.9091 36 23C49 26.0909 61 27.25 73 26.8636C85 26.0909 97 23.7727 109 23C121 22.2273 134 23.7727 146 21.0682C158 18.3636 170 12.1818 182 9.86364C194 7.15909 207 8.31818 219 11.0227C231 13.3409 243 17.2045 255 17.2045C267 17.2045 279 13.3409 292 11.0227C304 8.31818 316 7.15909 322 6.38636L328 6V40H322C316 40 304 40 292 40C279 40 267 40 255 40C243 40 231 40 219 40C207 40 194 40 182 40C170 40 158 40 146 40C134 40 121 40 109 40C97 40 85 40 73 40C61 40 49 40 36 40C24 40 12 40 6 40H0V9.86364Z" fill="#3EB09B"/>
<g filter="url(#filter1_b_1221_92)">
<path fill-rule="evenodd" clip-rule="evenodd" d="M0 10.0249L7 9.25633C14 8.48774 27 7.33485 41 8.48774C55 10.0249 68 13.4836 82 13.4836C96 13.4836 109 10.0249 123 11.9464C137 13.4836 150 21.1695 164 25.0125C178 28.8554 191 28.8554 205 30.7769C219 32.3141 232 36.157 246 32.3141C260 28.8554 273 17.3265 287 16.1737C301 15.0208 314 23.8596 321 28.0868L328 32.3141V40H321C314 40 301 40 287 40C273 40 260 40 246 40C232 40 219 40 205 40C191 40 178 40 164 40C150 40 137 40 123 40C109 40 96 40 82 40C68 40 55 40 41 40C27 40 14 40 7 40H0V10.0249Z" fill="#89D2C4" fill-opacity="0.2"/>
</g>
<path d="M19.504 15.44L21.604 11.432H22.996L20.14 16.676V20H18.856V16.724L16 11.432H17.404L19.504 15.44ZM29.0944 16.76C29.0944 17.296 29.0224 17.772 28.8784 18.188C28.7344 18.604 28.5304 18.956 28.2664 19.244C28.0024 19.532 27.6824 19.752 27.3064 19.904C26.9304 20.048 26.5064 20.12 26.0344 20.12C25.6024 20.12 25.2024 20.048 24.8344 19.904C24.4664 19.752 24.1464 19.532 23.8744 19.244C23.6104 18.956 23.4024 18.604 23.2504 18.188C23.0984 17.772 23.0224 17.292 23.0224 16.748C23.0224 16.036 23.1424 15.432 23.3824 14.936C23.6304 14.44 23.9824 14.064 24.4384 13.808C24.9024 13.544 25.4464 13.412 26.0704 13.412C26.6624 13.412 27.1824 13.544 27.6304 13.808C28.0864 14.064 28.4424 14.44 28.6984 14.936C28.9624 15.432 29.0944 16.04 29.0944 16.76ZM24.3304 16.76C24.3304 17.24 24.3904 17.656 24.5104 18.008C24.6304 18.352 24.8184 18.616 25.0744 18.8C25.3304 18.984 25.6584 19.076 26.0584 19.076C26.4584 19.076 26.7864 18.984 27.0424 18.8C27.2984 18.616 27.4864 18.352 27.6064 18.008C27.7264 17.656 27.7864 17.24 27.7864 16.76C27.7864 16.264 27.7224 15.848 27.5944 15.512C27.4744 15.176 27.2864 14.92 27.0304 14.744C26.7824 14.56 26.4544 14.468 26.0464 14.468C25.4464 14.468 25.0104 14.668 24.7384 15.068C24.4664 15.468 24.3304 16.032 24.3304 16.76ZM36.2749 13.532V20H35.2549L35.0749 19.148H35.0149C34.8789 19.372 34.7029 19.556 34.4869 19.7C34.2709 19.844 34.0349 19.948 33.7789 20.012C33.5229 20.084 33.2589 20.12 32.9869 20.12C32.4829 20.12 32.0549 20.04 31.7029 19.88C31.3589 19.712 31.0949 19.456 30.9109 19.112C30.7349 18.76 30.6469 18.312 30.6469 17.768V13.532H31.9309V17.576C31.9309 18.08 32.0349 18.456 32.2429 18.704C32.4589 18.952 32.7909 19.076 33.2389 19.076C33.6869 19.076 34.0389 18.988 34.2949 18.812C34.5509 18.636 34.7309 18.38 34.8349 18.044C34.9469 17.7 35.0029 17.288 35.0029 16.808V13.532H36.2749ZM41.4575 13.412C41.5695 13.412 41.6935 13.42 41.8295 13.436C41.9655 13.444 42.0775 13.456 42.1655 13.472L42.0335 14.66C41.9455 14.636 41.8415 14.616 41.7215 14.6C41.6015 14.584 41.4895 14.576 41.3855 14.576C41.1455 14.576 40.9135 14.624 40.6895 14.72C40.4735 14.808 40.2775 14.94 40.1015 15.116C39.9255 15.284 39.7855 15.492 39.6815 15.74C39.5855 15.988 39.5375 16.272 39.5375 16.592V20H38.2655V13.532H39.2735L39.4415 14.684H39.4895C39.6255 14.452 39.7895 14.24 39.9815 14.048C40.1735 13.856 40.3935 13.704 40.6415 13.592C40.8895 13.472 41.1615 13.412 41.4575 13.412ZM47.7524 13.076C47.7524 13.34 47.7444 13.592 47.7284 13.832C47.7204 14.064 47.7084 14.248 47.6924 14.384H47.7524C47.9364 14.112 48.1844 13.884 48.4964 13.7C48.8084 13.516 49.2124 13.424 49.7084 13.424C50.4844 13.424 51.1084 13.704 51.5804 14.264C52.0604 14.824 52.3004 15.656 52.3004 16.76C52.3004 17.504 52.1924 18.124 51.9764 18.62C51.7604 19.116 51.4564 19.492 51.0644 19.748C50.6724 19.996 50.2164 20.12 49.6964 20.12C49.1924 20.12 48.7884 20.032 48.4844 19.856C48.1804 19.672 47.9364 19.456 47.7524 19.208H47.6564L47.4164 20H46.4804V10.88H47.7524V13.076ZM49.4084 14.456C48.9924 14.456 48.6644 14.536 48.4244 14.696C48.1844 14.856 48.0124 15.1 47.9084 15.428C47.8044 15.756 47.7524 16.172 47.7524 16.676V16.772C47.7524 17.516 47.8724 18.088 48.1124 18.488C48.3524 18.88 48.7924 19.076 49.4324 19.076C49.9444 19.076 50.3324 18.876 50.5964 18.476C50.8604 18.076 50.9924 17.5 50.9924 16.748C50.9924 15.988 50.8604 15.416 50.5964 15.032C50.3324 14.648 49.9364 14.456 49.4084 14.456ZM56.4298 13.412C57.2458 13.412 57.8538 13.592 58.2538 13.952C58.6538 14.304 58.8538 14.86 58.8538 15.62V20H57.9538L57.7018 19.1H57.6538C57.4698 19.332 57.2778 19.524 57.0778 19.676C56.8858 19.828 56.6618 19.94 56.4058 20.012C56.1578 20.084 55.8538 20.12 55.4938 20.12C55.1098 20.12 54.7618 20.052 54.4498 19.916C54.1458 19.772 53.9058 19.556 53.7298 19.268C53.5538 18.972 53.4658 18.604 53.4658 18.164C53.4658 17.508 53.7138 17.008 54.2098 16.664C54.7138 16.32 55.4778 16.132 56.5018 16.1L57.6058 16.064V15.704C57.6058 15.224 57.4978 14.888 57.2818 14.696C57.0658 14.504 56.7618 14.408 56.3698 14.408C56.0338 14.408 55.7138 14.456 55.4098 14.552C55.1058 14.648 54.8178 14.764 54.5458 14.9L54.1378 13.976C54.4418 13.816 54.7898 13.684 55.1818 13.58C55.5818 13.468 55.9978 13.412 56.4298 13.412ZM56.7298 16.916C55.9938 16.948 55.4818 17.072 55.1938 17.288C54.9138 17.496 54.7738 17.792 54.7738 18.176C54.7738 18.512 54.8738 18.756 55.0738 18.908C55.2818 19.06 55.5418 19.136 55.8538 19.136C56.3578 19.136 56.7738 18.996 57.1018 18.716C57.4298 18.436 57.5938 18.016 57.5938 17.456V16.892L56.7298 16.916ZM62.0844 13.076C62.0844 13.34 62.0764 13.592 62.0604 13.832C62.0524 14.064 62.0404 14.248 62.0244 14.384H62.0844C62.2684 14.112 62.5164 13.884 62.8284 13.7C63.1404 13.516 63.5444 13.424 64.0404 13.424C64.8164 13.424 65.4404 13.704 65.9124 14.264C66.3924 14.824 66.6324 15.656 66.6324 16.76C66.6324 17.504 66.5244 18.124 66.3084 18.62C66.0924 19.116 65.7884 19.492 65.3964 19.748C65.0044 19.996 64.5484 20.12 64.0284 20.12C63.5244 20.12 63.1204 20.032 62.8164 19.856C62.5124 19.672 62.2684 19.456 62.0844 19.208H61.9884L61.7484 20H60.8124V10.88H62.0844V13.076ZM63.7404 14.456C63.3244 14.456 62.9964 14.536 62.7564 14.696C62.5164 14.856 62.3444 15.1 62.2404 15.428C62.1364 15.756 62.0844 16.172 62.0844 16.676V16.772C62.0844 17.516 62.2044 18.088 62.4444 18.488C62.6844 18.88 63.1244 19.076 63.7644 19.076C64.2764 19.076 64.6644 18.876 64.9284 18.476C65.1924 18.076 65.3244 17.5 65.3244 16.748C65.3244 15.988 65.1924 15.416 64.9284 15.032C64.6644 14.648 64.2684 14.456 63.7404 14.456ZM67.0354 13.532H68.4034L69.7474 17.204C69.8194 17.388 69.8834 17.568 69.9394 17.744C69.9954 17.92 70.0434 18.096 70.0834 18.272C70.1314 18.44 70.1674 18.608 70.1914 18.776H70.2394C70.2794 18.568 70.3434 18.324 70.4314 18.044C70.5194 17.756 70.6114 17.472 70.7074 17.192L71.9794 13.532H73.3474L70.5754 20.876C70.4234 21.292 70.2354 21.648 70.0114 21.944C69.7874 22.248 69.5194 22.48 69.2074 22.64C68.9034 22.8 68.5434 22.88 68.1274 22.88C67.9274 22.88 67.7554 22.868 67.6114 22.844C67.4674 22.828 67.3434 22.808 67.2394 22.784V21.776C67.3274 21.792 67.4314 21.808 67.5514 21.824C67.6794 21.84 67.8114 21.848 67.9474 21.848C68.1954 21.848 68.4074 21.8 68.5834 21.704C68.7674 21.608 68.9194 21.472 69.0394 21.296C69.1674 21.12 69.2754 20.92 69.3634 20.696L69.6274 20L67.0354 13.532ZM79.9728 13.412C80.7888 13.412 81.3968 13.592 81.7968 13.952C82.1968 14.304 82.3968 14.86 82.3968 15.62V20H81.4968L81.2448 19.1H81.1968C81.0128 19.332 80.8208 19.524 80.6208 19.676C80.4288 19.828 80.2048 19.94 79.9488 20.012C79.7008 20.084 79.3968 20.12 79.0368 20.12C78.6528 20.12 78.3048 20.052 77.9928 19.916C77.6888 19.772 77.4488 19.556 77.2728 19.268C77.0968 18.972 77.0088 18.604 77.0088 18.164C77.0088 17.508 77.2568 17.008 77.7528 16.664C78.2568 16.32 79.0208 16.132 80.0448 16.1L81.1488 16.064V15.704C81.1488 15.224 81.0408 14.888 80.8248 14.696C80.6088 14.504 80.3048 14.408 79.9128 14.408C79.5768 14.408 79.2568 14.456 78.9528 14.552C78.6488 14.648 78.3608 14.764 78.0888 14.9L77.6808 13.976C77.9848 13.816 78.3328 13.684 78.7248 13.58C79.1248 13.468 79.5408 13.412 79.9728 13.412ZM80.2728 16.916C79.5368 16.948 79.0248 17.072 78.7368 17.288C78.4568 17.496 78.3168 17.792 78.3168 18.176C78.3168 18.512 78.4168 18.756 78.6168 18.908C78.8248 19.06 79.0848 19.136 79.3968 19.136C79.9008 19.136 80.3168 18.996 80.6448 18.716C80.9728 18.436 81.1368 18.016 81.1368 17.456V16.892L80.2728 16.916ZM86.6834 19.088C86.8514 19.088 87.0234 19.072 87.1994 19.04C87.3754 19.008 87.5274 18.972 87.6554 18.932V19.892C87.5194 19.956 87.3354 20.008 87.1034 20.048C86.8714 20.096 86.6394 20.12 86.4074 20.12C86.0554 20.12 85.7314 20.06 85.4354 19.94C85.1474 19.82 84.9154 19.612 84.7394 19.316C84.5634 19.02 84.4754 18.608 84.4754 18.08V14.504H83.5754V13.928L84.5234 13.448L84.9674 12.08H85.7474V13.532H87.5954V14.504H85.7474V18.056C85.7474 18.408 85.8314 18.668 85.9994 18.836C86.1754 19.004 86.4034 19.088 86.6834 19.088ZM102.254 11.432L99.9983 20H98.6183L97.1063 14.708C97.0583 14.564 97.0103 14.404 96.9623 14.228C96.9223 14.052 96.8823 13.88 96.8423 13.712C96.8023 13.536 96.7663 13.38 96.7343 13.244C96.7103 13.108 96.6903 13.004 96.6743 12.932C96.6663 13.004 96.6503 13.108 96.6263 13.244C96.6023 13.38 96.5703 13.536 96.5303 13.712C96.4903 13.88 96.4503 14.056 96.4103 14.24C96.3703 14.416 96.3263 14.584 96.2783 14.744L94.7903 20H93.4103L91.1663 11.432H92.4983L93.7583 16.496C93.7983 16.672 93.8383 16.852 93.8783 17.036C93.9183 17.22 93.9543 17.404 93.9863 17.588C94.0263 17.772 94.0583 17.952 94.0823 18.128C94.1143 18.296 94.1423 18.452 94.1663 18.596C94.1903 18.444 94.2143 18.28 94.2383 18.104C94.2703 17.928 94.3063 17.748 94.3463 17.564C94.3863 17.372 94.4263 17.184 94.4663 17C94.5143 16.816 94.5623 16.648 94.6103 16.496L96.0383 11.432H97.3343L98.8103 16.52C98.8583 16.68 98.9023 16.852 98.9423 17.036C98.9903 17.22 99.0343 17.408 99.0743 17.6C99.1143 17.784 99.1463 17.964 99.1703 18.14C99.2023 18.308 99.2303 18.46 99.2543 18.596C99.2783 18.396 99.3103 18.18 99.3503 17.948C99.3983 17.708 99.4503 17.464 99.5063 17.216C99.5623 16.96 99.6183 16.72 99.6743 16.496L100.934 11.432H102.254ZM105.673 13.412C106.241 13.412 106.729 13.532 107.137 13.772C107.545 14.004 107.857 14.34 108.073 14.78C108.297 15.22 108.409 15.74 108.409 16.34V17.036H104.065C104.081 17.7 104.253 18.208 104.581 18.56C104.917 18.912 105.385 19.088 105.985 19.088C106.401 19.088 106.769 19.052 107.089 18.98C107.417 18.9 107.753 18.784 108.097 18.632V19.688C107.777 19.832 107.449 19.94 107.113 20.012C106.785 20.084 106.393 20.12 105.937 20.12C105.313 20.12 104.761 19.996 104.281 19.748C103.801 19.5 103.425 19.132 103.153 18.644C102.889 18.148 102.757 17.54 102.757 16.82C102.757 16.092 102.877 15.476 103.117 14.972C103.365 14.468 103.705 14.084 104.137 13.82C104.577 13.548 105.089 13.412 105.673 13.412ZM105.673 14.396C105.217 14.396 104.849 14.544 104.569 14.84C104.297 15.136 104.137 15.556 104.089 16.1H107.137C107.137 15.764 107.085 15.468 106.981 15.212C106.877 14.956 106.717 14.756 106.501 14.612C106.285 14.468 106.009 14.396 105.673 14.396ZM112.54 13.412C113.108 13.412 113.596 13.532 114.004 13.772C114.412 14.004 114.724 14.34 114.94 14.78C115.164 15.22 115.276 15.74 115.276 16.34V17.036H110.932C110.948 17.7 111.12 18.208 111.448 18.56C111.784 18.912 112.252 19.088 112.852 19.088C113.268 19.088 113.636 19.052 113.956 18.98C114.284 18.9 114.62 18.784 114.964 18.632V19.688C114.644 19.832 114.316 19.94 113.98 20.012C113.652 20.084 113.26 20.12 112.804 20.12C112.18 20.12 111.628 19.996 111.148 19.748C110.668 19.5 110.292 19.132 110.02 18.644C109.756 18.148 109.624 17.54 109.624 16.82C109.624 16.092 109.744 15.476 109.984 14.972C110.232 14.468 110.572 14.084 111.004 13.82C111.444 13.548 111.956 13.412 112.54 13.412ZM112.54 14.396C112.084 14.396 111.716 14.544 111.436 14.84C111.164 15.136 111.004 15.556 110.956 16.1H114.004C114.004 15.764 113.952 15.468 113.848 15.212C113.744 14.956 113.584 14.756 113.368 14.612C113.152 14.468 112.876 14.396 112.54 14.396ZM118.123 15.44C118.123 15.608 118.115 15.8 118.099 16.016C118.091 16.232 118.079 16.432 118.063 16.616H118.099C118.163 16.536 118.239 16.44 118.327 16.328C118.423 16.208 118.519 16.088 118.615 15.968C118.711 15.848 118.799 15.744 118.879 15.656L120.859 13.532H122.335L119.731 16.304L122.503 20H121.003L118.867 17.108L118.123 17.732V20H116.863V10.88H118.123V15.44ZM130.152 20H128.892V14.312C128.892 14.112 128.892 13.928 128.892 13.76C128.9 13.584 128.908 13.416 128.916 13.256C128.924 13.088 128.932 12.928 128.94 12.776C128.836 12.88 128.728 12.98 128.616 13.076C128.504 13.172 128.376 13.284 128.232 13.412L127.296 14.168L126.648 13.352L129.096 11.432H130.152V20ZM138.879 15.704C138.879 16.4 138.823 17.02 138.711 17.564C138.607 18.108 138.439 18.572 138.207 18.956C137.983 19.332 137.683 19.62 137.307 19.82C136.939 20.02 136.495 20.12 135.975 20.12C135.319 20.12 134.779 19.944 134.355 19.592C133.931 19.24 133.615 18.736 133.407 18.08C133.199 17.416 133.095 16.624 133.095 15.704C133.095 14.776 133.187 13.984 133.371 13.328C133.563 12.672 133.871 12.172 134.295 11.828C134.719 11.476 135.279 11.3 135.975 11.3C136.631 11.3 137.171 11.476 137.595 11.828C138.027 12.172 138.347 12.672 138.555 13.328C138.771 13.984 138.879 14.776 138.879 15.704ZM134.367 15.704C134.367 16.448 134.419 17.068 134.523 17.564C134.627 18.06 134.795 18.432 135.027 18.68C135.267 18.928 135.583 19.052 135.975 19.052C136.367 19.052 136.679 18.932 136.911 18.692C137.151 18.444 137.323 18.072 137.427 17.576C137.539 17.072 137.595 16.448 137.595 15.704C137.595 14.96 137.539 14.344 137.427 13.856C137.323 13.36 137.151 12.988 136.911 12.74C136.679 12.492 136.367 12.368 135.975 12.368C135.583 12.368 135.267 12.492 135.027 12.74C134.795 12.988 134.627 13.36 134.523 13.856C134.419 14.344 134.367 14.96 134.367 15.704Z" fill="white"/>
</g>
<defs>
<filter id="filter0_b_1221_92" x="-41" y="-41" width="410" height="112" filterUnits="userSpaceOnUse" color-interpolation-filters="sRGB">
<feFlood flood-opacity="0" result="BackgroundImageFix"/>
<feGaussianBlur in="BackgroundImage" stdDeviation="20.5"/>
<feComposite in2="SourceAlpha" operator="in" result="effect1_backgroundBlur_1221_92"/>
<feBlend mode="normal" in="SourceGraphic" in2="effect1_backgroundBlur_1221_92" result="shape"/>
</filter>
<filter id="filter1_b_1221_92" x="-7" y="1" width="342" height="46" filterUnits="userSpaceOnUse" color-interpolation-filters="sRGB">
<feFlood flood-opacity="0" result="BackgroundImageFix"/>
<feGaussianBlur in="BackgroundImage" stdDeviation="3.5"/>
<feComposite in2="SourceAlpha" operator="in" result="effect1_backgroundBlur_1221_92"/>
<feBlend mode="normal" in="SourceGraphic" in2="effect1_backgroundBlur_1221_92" result="shape"/>
</filter>
</defs>
</svg>
